<svg width="25" height="25" viewBox="0 0 25 25" fill="none" xmlns="http://www.w3.org/2000/svg">
<g clip-path="url(#clip0_1212_56)">
<path d="M25 22.2222C25 22.9589 24.7073 23.6655 24.1864 24.1864C23.6655 24.7073 22.9589 25 22.2222 25H2.77778C2.04107 25 1.33453 24.7073 0.813592 24.1864C0.292658 23.6655 0 22.9589 0 22.2222V2.77778C0 2.04107 0.292658 1.33453 0.813592 0.813592C1.33453 0.292658 2.04107 0 2.77778 0L22.2222 0C22.9589 0 23.6655 0.292658 24.1864 0.813592C24.7073 1.33453 25 2.04107 25 2.77778V22.2222Z" fill="#49B4BB"/>
<path d="M12.5 4.86114C13.4588 4.86114 14.2361 4.08386 14.2361 3.12503C14.2361 2.1662 13.4588 1.38892 12.5 1.38892C11.5412 1.38892 10.7639 2.1662 10.7639 3.12503C10.7639 4.08386 11.5412 4.86114 12.5 4.86114Z" fill="white"/>
<path d="M12.1333 12.6875C14.2951 12.5368 18.7951 12.2236 18.7951 10.1889C18.7951 8.11043 14.3917 7.95626 12.5111 7.89029L12.2993 7.88265C5.13681 7.58057 6.36667 5.86668 7.04306 5.86668C7.23334 6.03751 7.86875 6.5264 8.925 6.5264C9.2875 6.5264 9.66598 6.46807 10.05 6.3521C10.0819 6.34342 10.1103 6.32507 10.1313 6.29958C10.1523 6.27408 10.1649 6.24269 10.1674 6.20974C10.168 6.17679 10.1584 6.14446 10.1398 6.11722C10.1213 6.08997 10.0948 6.06916 10.0639 6.05765L9.04931 5.65696L10.6271 5.34515C10.6536 5.34037 10.6786 5.32921 10.6999 5.31264C10.7212 5.29607 10.7382 5.27458 10.7493 5.25001C10.7595 5.22609 10.7632 5.19992 10.7602 5.1741C10.7571 5.14827 10.7474 5.12369 10.7319 5.10279C10.6958 5.05557 9.8507 3.85071 8.40209 3.85071C6.42361 3.85071 4.83195 4.88057 4.83195 6.65557C4.83195 8.8014 9.91667 9.40349 12.191 9.40349C16.5465 9.40349 16.7674 9.98612 16.7674 10.1028C16.7674 10.7174 15.2208 11.0875 12.1701 11.2035C8.91181 11.3271 6.80625 12.2458 6.80625 13.5445C6.80625 14.7681 8.38403 15.4965 12.0826 15.9806C13.766 16.2007 15.7729 16.5708 15.7729 17.0827C15.7722 17.0889 15.5958 17.7653 12.1403 18.1972C8.91181 18.6021 8.49723 19.3618 8.49723 19.9778C8.49723 20.8118 9.6757 21.382 12.2063 21.7708C14.1361 22.0674 14.6771 22.7549 14.9368 23.0854C15.0465 23.2243 15.1333 23.3347 15.2833 23.3347C15.2972 23.3347 15.3319 23.3306 15.3451 23.3278C15.4889 23.2945 15.5681 23.1417 15.5576 22.9181C15.5507 22.7521 15.3986 21.2813 12.4181 20.8313C10.559 20.5507 10.4153 20.1035 10.4153 19.9729C10.4153 19.9076 10.4986 19.5702 12.1201 19.3431C12.3451 19.3264 17.6479 18.9083 17.6479 17.0375C17.6479 15.4986 14.5493 14.9382 11.816 14.4452C10.4382 14.1958 8.72361 13.8861 8.72361 13.5611C8.72431 13.2708 9.31528 12.8833 12.1333 12.6875Z" fill="white"/>
<path d="M8.54652 5.09863C8.83801 5.09863 9.0743 4.96121 9.0743 4.79169C9.0743 4.62216 8.83801 4.48474 8.54652 4.48474C8.25504 4.48474 8.01875 4.62216 8.01875 4.79169C8.01875 4.96121 8.25504 5.09863 8.54652 5.09863Z" fill="#49B4BB"/>
<path d="M11.1111 17.0875H11.8056V19.7764H11.1111V17.0875ZM13.1944 17.0875H13.8889V19.7764H13.1944V17.0875ZM11.1111 10.4688H11.8056V13.1576H11.1111V10.4688ZM13.1944 10.4688H13.8889V13.1576H13.1944V10.4688Z" fill="#49B4BB"/>
<path d="M11.8055 13.757L13.1944 14.0201V8.0889L11.8055 8.03057V13.757ZM13.1944 15.1313L11.8055 14.875V20.0535C12.1792 20.0986 12.8042 20.2458 13.1944 20.3438V15.1313ZM11.8055 21.066V22.9167C11.8055 23.1009 11.8787 23.2775 12.0089 23.4077C12.1392 23.538 12.3158 23.6111 12.5 23.6111C12.6842 23.6111 12.8608 23.538 12.991 23.4077C13.1213 23.2775 13.1944 23.1009 13.1944 22.9167V21.3493C12.5917 21.2111 12.2069 21.1563 11.8055 21.066ZM13.1944 7.24862V3.7014C13.1944 3.51722 13.1213 3.34059 12.991 3.21036C12.8608 3.08012 12.6842 3.00696 12.5 3.00696C12.3158 3.00696 12.1392 3.08012 12.0089 3.21036C11.8787 3.34059 11.8055 3.51722 11.8055 3.7014V7.18473L13.1944 7.24862Z" fill="white"/>
</g>
<defs>
<clipPath id="clip0_1212_56">
<rect width="25" height="25" fill="white"/>
</clipPath>
</defs>
</svg>
